<?xml version="1.0" encoding="UTF-8" standalone="no"?>
<svg width="496px" height="172px" viewBox="0 0 496 172" version="1.1" xmlns="http://www.w3.org/2000/svg" xmlns:xlink="http://www.w3.org/1999/xlink" xmlns:sketch="http://www.bohemiancoding.com/sketch/ns">
    <title>onchange_vdom_initial</title>
    <description>Created with Sketch (http://www.bohemiancoding.com/sketch)</description>
    <defs></defs>
    <g id="vdom-initial" stroke="none" stroke-width="1" fill="none" fill-rule="evenodd" sketch:type="MSPage">
        <path d="M51.5,48.5 L32.5,37.5" id="Line" stroke="#417505" stroke-linecap="square" sketch:type="MSShapeGroup"></path>
        <path d="M34.5,82.5 L55,58" id="Line" stroke="#417505" stroke-linecap="square" sketch:type="MSShapeGroup"></path>
        <path d="M43.5,94.5 L71.5,120.5" id="Line" stroke="#417505" stroke-linecap="square" sketch:type="MSShapeGroup"></path>
        <path d="M100.5,67.5 L74.5,112.5" id="Line" stroke="#417505" stroke-linecap="square" sketch:type="MSShapeGroup"></path>
        <path d="M97.5,60.5 L61.5,53.5" id="Line" stroke="#417505" stroke-linecap="square" sketch:type="MSShapeGroup"></path>
        <circle id="Oval-1" stroke="#417505" fill="#B8E986" sketch:type="MSShapeGroup" cx="24.5" cy="33.5" r="11.5"></circle>
        <circle id="Oval-1" stroke="#417505" fill="#B8E986" sketch:type="MSShapeGroup" cx="35.5" cy="87.5" r="11.5"></circle>
        <circle id="Oval-1" stroke="#417505" fill="#B8E986" sketch:type="MSShapeGroup" cx="70.5" cy="118.5" r="11.5"></circle>
        <circle id="Oval-1" stroke="#979797" fill="#D8D8D8" sketch:type="MSShapeGroup" cx="58.5" cy="51.5" r="11.5"></circle>
        <circle id="Oval-1" stroke="#417505" fill="#B8E986" sketch:type="MSShapeGroup" cx="58.5" cy="51.5" r="11.5"></circle>
        <circle id="Oval-1" stroke="#417505" fill="#B8E986" sketch:type="MSShapeGroup" cx="100.5" cy="63.5" r="11.5"></circle>
        <path d="M422.5,21.5 L392.5,50.5" id="Line" stroke="#417505" stroke-linecap="square" sketch:type="MSShapeGroup"></path>
        <path d="M421.5,20.5 L455.5,51.5" id="Line" stroke="#417505" stroke-linecap="square" sketch:type="MSShapeGroup"></path>
        <path d="M391.5,70.5 L362.5,97.5" id="Line" stroke="#417505" stroke-linecap="square" sketch:type="MSShapeGroup"></path>
        <path d="M392.5,68.5 L423.5,97.5" id="Line" stroke="#417505" stroke-linecap="square" sketch:type="MSShapeGroup"></path>
        <path d="M423.5,116.5 L423.5,148.5" id="Line" stroke="#417505" stroke-linecap="square" sketch:type="MSShapeGroup"></path>
        <rect id="Rectangle-1" stroke="#417505" fill="#B8E986" sketch:type="MSShapeGroup" x="371" y="49" width="43" height="24"></rect>
        <rect id="Rectangle-1" stroke="#417505" fill="#B8E986" sketch:type="MSShapeGroup" x="431" y="49" width="43" height="24"></rect>
        <rect id="Rectangle-1" stroke="#417505" fill="#B8E986" sketch:type="MSShapeGroup" x="341" y="96" width="43" height="24"></rect>
        <rect id="Rectangle-1" stroke="#417505" fill="#B8E986" sketch:type="MSShapeGroup" x="400" y="96" width="43" height="24"></rect>
        <path d="M216,148 C254.659934,148 286,117.555365 286,80 C286,42.4446352 254.659934,12 216,12 C177.340066,12 146,42.4446352 146,80 C146,117.555365 177.340066,148 216,148 Z" id="Oval-7" stroke="#D4D4D4" fill="#FFFEF0" sketch:type="MSShapeGroup"></path>
        <path d="M219.677419,35.3333333 L200.322581,54.6666667" id="Line" stroke="#7ED321" stroke-linecap="square" sketch:type="MSShapeGroup"></path>
        <path d="M219.328571,34.34375 L241.671429,55.65625" id="Line" stroke="#7ED321" stroke-linecap="square" sketch:type="MSShapeGroup"></path>
        <path d="M199.683333,68.3392857 L181.316667,86.6607143" id="Line" stroke="#7ED321" stroke-linecap="square" sketch:type="MSShapeGroup"></path>
        <path d="M200.328125,67.3333333 L220.671875,86.6666667" id="Line" stroke="#7ED321" stroke-linecap="square" sketch:type="MSShapeGroup"></path>
        <rect id="Rectangle-1" stroke="#417505" fill="#B8E986" sketch:type="MSShapeGroup" x="400" y="0" width="43" height="24"></rect>
        <rect id="Rectangle-1" stroke="#417505" fill="#B8E986" sketch:type="MSShapeGroup" x="400" y="142" width="43" height="24"></rect>
        <rect id="Rectangle-1" stroke="#7ED321" fill="#EDFFDA" sketch:type="MSShapeGroup" x="206" y="21" width="27" height="17"></rect>
        <path d="M220.5,99.3333333 L220.5,120.666667" id="Line" stroke="#7ED321" stroke-linecap="square" sketch:type="MSShapeGroup"></path>
        <rect id="Rectangle-1" stroke="#7ED321" fill="#EDFFDA" sketch:type="MSShapeGroup" x="187" y="54" width="27" height="17"></rect>
        <rect id="Rectangle-1" stroke="#7ED321" fill="#EDFFDA" sketch:type="MSShapeGroup" x="226" y="54" width="27" height="17"></rect>
        <rect id="Rectangle-1" stroke="#7ED321" fill="#EDFFDA" sketch:type="MSShapeGroup" x="168" y="86" width="27" height="17"></rect>
        <rect id="Rectangle-1" stroke="#7ED321" fill="#EDFFDA" sketch:type="MSShapeGroup" x="206" y="86" width="27" height="17"></rect>
        <rect id="Rectangle-1" stroke="#7ED321" fill="#EDFFDA" sketch:type="MSShapeGroup" x="206" y="117" width="27" height="17"></rect>
        <path d="M219.5,12.5 L0.528423773,23.4456522" id="Line" stroke="#D4D4D4" stroke-linecap="square" sketch:type="MSShapeGroup"></path>
        <path d="M212.5,148.5 L0.528325123,120.554688" id="Line" stroke="#D4D4D4" stroke-linecap="square" sketch:type="MSShapeGroup"></path>
        <text id="Model" sketch:type="MSTextLayer" font-family="Helvetica" font-size="12" font-weight="normal" fill="#000000">
            <tspan x="72" y="38">Model</tspan>
        </text>
        <text id="Virtual-DOM" sketch:type="MSTextLayer" font-family="Helvetica" font-size="12" font-weight="normal" fill="#000000">
            <tspan x="187" y="171">Virtual DOM</tspan>
        </text>
        <text id="Render" sketch:type="MSTextLayer" font-family="Helvetica" font-size="12" font-weight="normal" fill="#000000">
            <tspan x="293" y="94">Render</tspan>
        </text>
        <text id="DOM" sketch:type="MSTextLayer" font-family="Helvetica" font-size="12" font-weight="normal" fill="#000000">
            <tspan x="468" y="113">DOM</tspan>
        </text>
        <path d="M287.5,77.5 L330.5,77.5" id="Line" stroke="#979797" stroke-linecap="square" fill="#9B9B9B" sketch:type="MSShapeGroup"></path>
        <path id="Line-decoration-1" d="M319.7,80.5 C323.48,79.45 326.72,78.55 330.5,77.5 C326.72,76.45 323.48,75.55 319.7,74.5" stroke="#979797" stroke-linecap="square" fill="#9B9B9B"></path>
    </g>
</svg>